<svg xmlns="http://www.w3.org/2000/svg" x="0px" y="0px" width="100" height="100" viewBox="0 0 50 50">
<path d="M 10 4 C 6.15625 4 3 7.15625 3 11 L 3 14 C 3 14.550781 3.449219 15 4 15 L 9 15 L 9 45 C 9 45.550781 9.449219 46 10 46 L 24 46 L 24 44 L 11 44 L 11 15 L 30 15 C 30.550781 15 31 14.550781 31 14 L 31 11 C 31 8.246094 33.246094 6 36 6 C 36.03125 6 36.0625 6 36.09375 6 C 38.804688 6.050781 41 8.277344 41 11 L 41 44 L 36 44 L 36 46 L 42 46 C 42.550781 46 43 45.550781 43 45 L 43 11 C 43 7.207031 39.929688 4.082031 36.15625 4 C 36.105469 4 36.050781 4 36 4 Z M 10 6 L 31.15625 6 C 29.839844 7.273438 29 9.035156 29 11 L 29 13 L 5 13 L 5 11 C 5 8.246094 7.246094 6 10 6 Z M 16 18 L 16 20 L 36 20 L 36 18 Z M 16 24 L 16 26 L 36 26 L 36 24 Z M 30 30 C 29.226563 30 28.589844 30.429688 28.125 31.03125 C 27.429688 30.878906 26.679688 30.914063 26.0625 31.40625 C 25.449219 31.898438 25.289063 32.65625 25.3125 33.375 C 24.664063 33.730469 24.128906 34.265625 24 35.03125 C 23.875 35.789063 24.214844 36.460938 24.6875 37 C 24.40625 37.710938 24.378906 38.503906 24.75 39.125 C 24.816406 39.238281 24.914063 39.3125 25 39.40625 L 25 48 C 24.996094 48.378906 25.207031 48.726563 25.546875 48.898438 C 25.882813 49.070313 26.289063 49.039063 26.59375 48.8125 L 30 46.25 L 33.40625 48.8125 C 33.710938 49.039063 34.117188 49.070313 34.453125 48.898438 C 34.792969 48.726563 35.003906 48.378906 35 48 L 35 39.40625 C 35.085938 39.3125 35.183594 39.238281 35.25 39.125 C 35.683594 38.402344 35.589844 37.664063 35.3125 37 C 35.785156 36.460938 36.125 35.789063 36 35.03125 C 35.871094 34.265625 35.335938 33.730469 34.6875 33.375 C 34.710938 32.65625 34.550781 31.898438 33.9375 31.40625 C 33.320313 30.914063 32.570313 30.878906 31.875 31.03125 C 31.421875 30.457031 30.785156 30 30 30 Z M 32 31.21875 C 32.042969 31.25 32.125 31.3125 32.09375 31.28125 L 32.0625 31.3125 C 32.042969 31.28125 32.019531 31.25 32 31.21875 Z M 30 32 C 30.320313 32 30.351563 32.058594 30.4375 32.3125 C 30.488281 32.464844 30.574219 32.605469 30.6875 32.71875 C 30.738281 32.769531 30.800781 32.835938 31.0625 32.96875 C 31.324219 33.101563 31.542969 33.09375 31.59375 33.09375 C 31.777344 33.101563 31.964844 33.058594 32.125 32.96875 C 32.273438 32.878906 32.542969 32.851563 32.6875 32.96875 C 32.855469 33.105469 32.855469 33.152344 32.75 33.46875 C 32.710938 33.578125 32.6875 33.695313 32.6875 33.8125 C 32.6875 33.949219 32.757813 33.96875 32.8125 34.09375 C 32.847656 34.542969 33.179688 34.917969 33.625 35 C 33.78125 35.027344 33.972656 35.21875 34 35.375 C 34.027344 35.546875 33.929688 35.753906 33.78125 35.84375 C 33.492188 36.027344 33.3125 36.34375 33.3125 36.6875 L 33.3125 37 C 33.308594 37.210938 33.375 37.421875 33.5 37.59375 C 33.527344 37.632813 33.570313 38.03125 33.53125 38.09375 C 33.441406 38.242188 33.234375 38.339844 33.0625 38.3125 C 32.695313 38.246094 32.320313 38.390625 32.09375 38.6875 C 32.09375 38.699219 32.09375 38.707031 32.09375 38.71875 C 32.058594 38.746094 32.074219 38.742188 32.03125 38.78125 C 32.019531 38.792969 32.011719 38.769531 32 38.78125 C 31.800781 38.96875 31.691406 39.226563 31.6875 39.5 C 31.6875 39.765625 31.6875 39.769531 31.46875 39.84375 C 31.425781 39.863281 31.382813 39.882813 31.34375 39.90625 C 31.335938 39.902344 31.363281 39.90625 31.3125 39.90625 C 31.246094 39.90625 31.050781 39.832031 30.90625 39.6875 C 30.714844 39.5 30.453125 39.398438 30.1875 39.40625 L 29.8125 39.40625 C 29.546875 39.398438 29.285156 39.5 29.09375 39.6875 C 28.929688 39.851563 28.75 39.917969 28.53125 39.84375 C 28.410156 39.777344 28.3125 39.640625 28.3125 39.5 C 28.3125 39.308594 28.21875 39.050781 28.09375 38.875 C 27.980469 38.714844 27.878906 38.636719 27.8125 38.59375 C 27.582031 38.363281 27.257813 38.257813 26.9375 38.3125 C 26.765625 38.339844 26.558594 38.242188 26.46875 38.09375 C 26.351563 37.894531 26.3125 37.820313 26.46875 37.625 C 26.609375 37.449219 26.6875 37.226563 26.6875 37 L 26.6875 36.6875 C 26.6875 36.34375 26.507813 36.027344 26.21875 35.84375 C 26.070313 35.753906 25.972656 35.546875 26 35.375 C 26.027344 35.21875 26.21875 35.027344 26.375 35 C 26.820313 34.917969 27.152344 34.542969 27.1875 34.09375 C 27.242188 33.96875 27.3125 33.949219 27.3125 33.8125 C 27.3125 33.695313 27.289063 33.578125 27.25 33.46875 C 27.144531 33.152344 27.144531 33.105469 27.3125 32.96875 C 27.457031 32.851563 27.726563 32.878906 27.875 32.96875 C 28.183594 33.148438 28.566406 33.148438 28.875 32.96875 C 28.886719 32.96875 28.894531 32.96875 28.90625 32.96875 C 28.917969 32.957031 28.925781 32.949219 28.9375 32.9375 C 28.957031 32.929688 28.980469 32.917969 29 32.90625 C 29.261719 32.796875 29.46875 32.582031 29.5625 32.3125 C 29.613281 32.15625 29.84375 32 30 32 Z M 27 41.0625 C 27.226563 41.351563 27.5 41.582031 27.84375 41.71875 C 27.855469 41.730469 27.863281 41.738281 27.875 41.75 C 28.632813 42.003906 29.363281 41.78125 29.96875 41.40625 C 29.976563 41.402344 29.992188 41.410156 30 41.40625 L 30.1875 41.40625 C 30.542969 41.613281 30.859375 41.90625 31.3125 41.90625 C 31.484375 41.90625 31.828125 41.832031 32.125 41.71875 C 32.140625 41.703125 32.167969 41.695313 32.1875 41.6875 C 32.207031 41.679688 32.230469 41.699219 32.25 41.6875 L 32.25 41.65625 C 32.558594 41.527344 32.804688 41.332031 33 41.09375 L 33 46 L 30.59375 44.1875 C 30.242188 43.925781 29.757813 43.925781 29.40625 44.1875 L 27 46 Z"></path>
</svg>